<?xml version="1.0" encoding="utf-8"?>
<!-- Generator: Adobe Illustrator 23.0.1, SVG Export Plug-In . SVG Version: 6.00 Build 0)  -->
<svg version="1.1" id="Layer_1" xmlns="http://www.w3.org/2000/svg" xmlns:xlink="http://www.w3.org/1999/xlink" x="0px" y="0px"
	 viewBox="0 0 102 99.2" style="enable-background:new 0 0 102 99.2;" xml:space="preserve">
<style type="text/css">
	.st0{fill:#FFF200;}
	.st1{fill:#FFFFFF;}
	.st2{fill:#00AEEF;}
</style>
<title>Asset 9</title>
<path class="st0" d="M55.6,57.8h-9.8l-6,15.8h6.4L37.8,88l19.9-19.8h-8.4L55.6,57.8z"/>
<path class="st1" d="M15.2,60.2c-8,0-14.4-6.5-14.4-14.4s6.5-14.4,14.4-14.4C13.7,17,24,4.2,38.3,2.6C50,1.3,61.2,8.2,65.4,19.2
	c9.4-2.3,18.8,3.4,21.2,12.8c0.5,2.1,0.7,4.4,0.4,6.6c5.8-1.8,12,1.4,13.8,7.1c1.8,5.8-1.4,12-7.1,13.8c-0.3,0.1-0.7,0.2-1,0.3
	c-0.9,0.2-1.9,0.4-2.8,0.4L15.2,60.2z"/>
<g id="Layer_23">
	<path class="st2" d="M32.2,73.8c0.9,2.3-0.3,4.9-2.6,5.8s-4.9-0.3-5.8-2.6c-0.4-1-0.4-2.2,0-3.2l4.2-11L32.2,73.8z"/>
</g>
<g id="Layer_17">
	<path class="st2" d="M57.4,73.8c0.9,2.3-0.3,4.9-2.6,5.8S49.9,79.3,49,77c-0.4-1-0.4-2.1,0-3.2l4.2-11L57.4,73.8z"/>
</g>
<g id="Layer_16">
	<path class="st2" d="M46.4,91.8c0.9,2.3-0.3,4.9-2.6,5.8S38.9,97.3,38,95c-0.4-1-0.4-2.1,0-3.2l4.2-11L46.4,91.8z"/>
</g>
<g id="Layer_15">
	<path class="st2" d="M71.6,91.8c0.9,2.3-0.3,4.9-2.6,5.8c-2.3,0.9-4.9-0.3-5.8-2.6c-0.4-1-0.4-2.1,0-3.2l4.2-11L71.6,91.8z"/>
</g>
</svg>
