<svg xmlns="http://www.w3.org/2000/svg" viewBox="0 0 344.46 188.66"><defs><style>.cls-1{fill:#f598a2;}.cls-2{fill:#fdd9c1;}.cls-3{fill:#b8e0d2;}.cls-4{fill:#c8cfe9;}</style></defs><title>Asset 852</title><g id="Layer_2" data-name="Layer 2"><g id="Layer_1-2" data-name="Layer 1"><path class="cls-1" d="M65.06,156.13v32.53H33.22c-17,0-32.17-14-33.16-30.51A32.52,32.52,0,0,1,32.53,123.6c.86,0,1.64,0,2.42.08a32.64,32.64,0,0,1,27.78,20.4c.37.93.71,1.89,1,2.86A32.21,32.21,0,0,1,65.06,156.13Z"/><path class="cls-2" d="M219.28,58a67.15,67.15,0,0,0-28.94,29.31,63.92,63.92,0,0,0-3.72,8.87c-.13.36-.25.73-.36,1.09s-.24.73-.34,1.1c-.22.73-.43,1.47-.62,2.21-.3,1.11-.57,2.23-.8,3.37-.1.48-.2,1-.29,1.44q-.18,1-.33,2c-.07.38-.12.76-.17,1.15s-.11.77-.15,1.16-.1.77-.13,1.16a66,66,0,0,0-.37,7.06v70.73H76.4V156.13c0-.67,0-1.34-.05-2a5.07,5.07,0,0,0,0-.55c0-.21,0-.43,0-.64s0-.7-.09-1.05-.07-.7-.11-1-.09-.68-.14-1c-.15-1.07-.35-2.13-.58-3.17-.07-.31-.14-.62-.22-.93-.16-.66-.34-1.33-.54-2-.09-.33-.19-.65-.3-1-.21-.65-.43-1.3-.67-1.93s-.49-1.27-.76-1.9l-.42-.92c-.14-.31-.28-.62-.43-.92s-.29-.61-.45-.91l-.48-.9c-.47-.89-1-1.76-1.54-2.61s-.92-1.39-1.4-2.07l-.09-.11c-.46-.64-.94-1.27-1.43-1.88l-.08-.1c-.51-.62-1-1.23-1.56-1.82l0,0q-.54-.6-1.11-1.17a2.47,2.47,0,0,0-.28-.28c-.29-.3-.59-.6-.9-.88s-.89-.84-1.35-1.23a7.57,7.57,0,0,0-.62-.53c-.16-.15-.32-.28-.48-.41s-.5-.42-.76-.61c-.63-.5-1.27-1-1.93-1.43a.88.88,0,0,0-.17-.12c-.32-.23-.65-.45-1-.65-.71-.48-1.42-.92-2.16-1.33A42.32,42.32,0,0,0,46,114.39a37,37,0,0,0-5-1.31c-.3-.07-.61-.13-.91-.18A94.27,94.27,0,0,1,64.69,29a93.16,93.16,0,0,1,67-29h.7A94.17,94.17,0,0,1,219.28,58Z"/><path class="cls-3" d="M305.83,112.66a43.88,43.88,0,0,0-37.77,43.47v32.53H194.4V117.93c0-.76,0-1.52,0-2.28q0-.84.09-1.68a2.46,2.46,0,0,1,0-.26c.05-.65.11-1.31.18-2,0-.13,0-.26,0-.38q.1-.9.24-1.8c.1-.69.21-1.37.34-2s.22-1.15.35-1.71c.08-.37.17-.75.26-1.12s.14-.6.22-.9.14-.55.22-.82.16-.6.25-.9.19-.65.3-1,.18-.58.28-.86.21-.64.32-1c.2-.59.41-1.17.64-1.74.4-1.07.85-2.12,1.34-3.16.24-.52.49-1,.74-1.55s.37-.73.56-1.1a56,56,0,0,1,27.84-25.56l1.82-.76.12,0a55.44,55.44,0,0,1,19.61-3.56A56,56,0,0,1,305.83,112.66Z"/><path class="cls-4" d="M344.39,158.31c-1.07,16.45-16.22,30.35-33.09,30.35H279.4V156.75c0-16.26,12.93-30.94,28.61-32.92.56-.07,1.14-.12,1.71-.16s1.44-.07,2.16-.07a32.54,32.54,0,0,1,32.51,34.71Z"/></g></g></svg>